<?xml version="1.0" standalone="no"?>
<!DOCTYPE svg PUBLIC "-//W3C//DTD SVG 20010904//EN"
 "http://www.w3.org/TR/2001/REC-SVG-20010904/DTD/svg10.dtd">
<svg version="1.0" xmlns="http://www.w3.org/2000/svg"
 width="260.000000pt" height="260.000000pt" viewBox="0 0 260.000000 260.000000"
 preserveAspectRatio="xMidYMid meet">
<metadata>
Created by potrace 1.14, written by Peter Selinger 2001-2017
</metadata>
<g transform="translate(0.000000,260.000000) scale(0.100000,-0.100000)"
fill="#000000" stroke="none">
<path d="M0 2280 c0 -176 2 -320 4 -320 2 0 44 25 92 56 122 77 387 205 513
249 344 118 634 143 916 80 147 -33 237 -66 520 -188 269 -116 402 -157 510
-157 l45 0 0 300 0 300 -1300 0 -1300 0 0 -320z"/>
<path d="M1070 2354 c-166 -21 -340 -66 -510 -131 -128 -49 -377 -175 -487
-246 l-73 -47 0 -950 c0 -522 2 -950 4 -950 2 0 57 34 123 76 245 157 550 285
803 336 92 18 147 23 280 23 253 -1 393 -36 724 -182 226 -100 339 -140 443
-158 89 -16 180 -19 207 -9 14 6 16 97 16 935 l0 929 -45 0 c-117 0 -260 45
-566 178 -222 98 -377 151 -509 177 -82 16 -339 28 -410 19z m419 -613 c79
-24 156 -74 192 -124 16 -22 29 -43 29 -48 0 -4 -41 -37 -91 -72 l-92 -66 -21
32 c-34 52 -98 79 -178 75 -56 -3 -73 -8 -105 -34 -77 -61 -109 -174 -79 -277
48 -165 226 -217 343 -101 l44 44 94 -56 c52 -31 95 -62 95 -68 0 -22 -49 -78
-95 -111 -225 -160 -520 -108 -667 119 -169 262 -49 598 247 692 63 20 213 17
284 -5z"/>
<path d="M1070 444 c-220 -28 -452 -101 -675 -212 -113 -56 -294 -161 -354
-206 l-35 -26 1297 0 1297 0 0 48 0 47 -69 -3 c-141 -7 -292 36 -586 165 -190
84 -360 144 -480 168 -78 16 -324 28 -395 19z"/>
</g>
</svg>
